<svg width="19" height="19" viewBox="0 0 19 19" fill="none" xmlns="http://www.w3.org/2000/svg">
<path d="M13.656 0.930011L1.464 13.122C0.99834 13.5852 0.629176 14.1361 0.377879 14.7429C0.126582 15.3496 -0.00185745 16.0002 -3.0919e-06 16.657V18C-3.0919e-06 18.2652 0.105354 18.5196 0.29289 18.7071C0.480427 18.8947 0.73478 19 0.999997 19H2.343C2.99976 19.0019 3.65037 18.8734 4.25715 18.6221C4.86394 18.3708 5.41485 18.0017 5.878 17.536L18.07 5.34401C18.6544 4.75818 18.9826 3.96449 18.9826 3.13701C18.9826 2.30954 18.6544 1.51584 18.07 0.930011C17.4757 0.361905 16.6852 0.0448608 15.863 0.0448608C15.0408 0.0448608 14.2503 0.361905 13.656 0.930011ZM16.656 3.93001L4.464 16.122C3.90012 16.6824 3.138 16.9979 2.343 17H2V16.657C2.00208 15.862 2.31756 15.0999 2.878 14.536L15.07 2.34401C15.2836 2.13997 15.5676 2.0261 15.863 2.0261C16.1584 2.0261 16.4424 2.13997 16.656 2.34401C16.8659 2.55453 16.9838 2.8397 16.9838 3.13701C16.9838 3.43432 16.8659 3.7195 16.656 3.93001Z" fill="#111238"/>
</svg>
